<!DOCTYPE svg PUBLIC "-//W3C//DTD SVG 1.1//EN" "http://www.w3.org/Graphics/SVG/1.1/DTD/svg11.dtd">
<!-- Uploaded to: SVG Repo, www.svgrepo.com, Transformed by: SVG Repo Mixer Tools -->
<svg fill="#000000" width="800px" height="800px" viewBox="0 0 32 32" data-name="Layer 2" id="Layer_2" xmlns="http://www.w3.org/2000/svg" stroke="#000000" stroke-width="0.00032">
<g id="SVGRepo_bgCarrier" stroke-width="0"/>
<g id="SVGRepo_tracerCarrier" stroke-linecap="round" stroke-linejoin="round"/>
<g id="SVGRepo_iconCarrier">
<title/>
<path d="M25.67,13.91a48.86,48.86,0,0,1-9.09-7.64,1.27,1.27,0,0,0-1.77,0,68.91,68.91,0,0,1-8.53,7.48c-1.28.94,0,3.11,1.26,2.15.2-.14.39-.3.59-.45.12,1.54.12,3.06.15,4.61a7.13,7.13,0,0,0,.57,3.45c1.47,2.62,5.1,1.79,7.58,1.74,2.24-.05,5.52.42,7.08-1.65,1.38-1.83,1-5.08.71-7.67l.19.14C25.77,17,27,14.79,25.67,13.91ZM15.39,22.78V17.41a13.29,13.29,0,0,1,2.19,0,14.18,14.18,0,0,1-.08,2.89,9.28,9.28,0,0,0,.11,2.53C16.81,22.85,16,22.79,15.39,22.78Zm6.31-4.65a9.4,9.4,0,0,1,.09,2.79,2.54,2.54,0,0,1-1.68,1.62c-.51-1.79.05-3.92-.18-5.77S18,15,16.37,15s-3.25-.27-3.47,1.61a48.25,48.25,0,0,0,0,6.25,2.15,2.15,0,0,1-2-1,7.47,7.47,0,0,1-.11-2.79,43,43,0,0,0-.37-5.45q2.74-2.23,5.26-4.74a51.26,51.26,0,0,0,5.88,5.15C21.61,15.42,21.65,16.78,21.7,18.13Z"/>
</g>
</svg>