<svg width="24" height="26" viewBox="0 0 24 26" fill="none" xmlns="http://www.w3.org/2000/svg">
<circle cx="12" cy="12" r="12" fill="#0E558E"/>
<path d="M12.016 5.282C13.3333 5.282 14.391 5.643 15.189 6.365C15.9997 7.07433 16.405 8.056 16.405 9.31C16.405 10.5513 16.006 11.5013 15.208 12.16C14.41 12.806 13.3523 13.129 12.035 13.129L11.959 14.592H9.622L9.527 11.362H10.382C11.484 11.362 12.3327 11.2163 12.928 10.925C13.5233 10.6337 13.821 10.1017 13.821 9.329C13.821 8.77167 13.6563 8.32833 13.327 7.999C13.0103 7.66967 12.5733 7.505 12.016 7.505C11.4333 7.505 10.9773 7.66333 10.648 7.98C10.3313 8.29667 10.173 8.73367 10.173 9.291H7.665C7.65233 8.51833 7.817 7.828 8.159 7.22C8.501 6.612 9.00133 6.137 9.66 5.795C10.3313 5.453 11.1167 5.282 12.016 5.282ZM10.781 19.133C10.2997 19.133 9.90067 18.9873 9.584 18.696C9.28 18.392 9.128 18.0183 9.128 17.575C9.128 17.1317 9.28 16.7643 9.584 16.473C9.90067 16.169 10.2997 16.017 10.781 16.017C11.2497 16.017 11.636 16.169 11.94 16.473C12.244 16.7643 12.396 17.1317 12.396 17.575C12.396 18.0183 12.244 18.392 11.94 18.696C11.636 18.9873 11.2497 19.133 10.781 19.133Z" fill="white"/>
</svg>
