<svg width="33" height="43" viewBox="0 0 33 43" fill="none" xmlns="http://www.w3.org/2000/svg">
<circle cx="16.5" cy="26.5" r="16.5" fill="#0E558E"/>
<path d="M13.214 31.21C14.366 30.214 15.272 29.398 15.932 28.762C16.604 28.114 17.162 27.442 17.606 26.746C18.05 26.05 18.272 25.354 18.272 24.658C18.272 23.938 18.098 23.374 17.75 22.966C17.414 22.558 16.88 22.354 16.148 22.354C15.44 22.354 14.888 22.582 14.492 23.038C14.108 23.482 13.904 24.082 13.88 24.838H11.9C11.936 23.47 12.344 22.426 13.124 21.706C13.916 20.974 14.918 20.608 16.13 20.608C17.438 20.608 18.458 20.968 19.19 21.688C19.934 22.408 20.306 23.368 20.306 24.568C20.306 25.432 20.084 26.266 19.64 27.07C19.208 27.862 18.686 28.576 18.074 29.212C17.474 29.836 16.706 30.562 15.77 31.39L14.96 32.11H20.666V33.82H11.918V32.326L13.214 31.21Z" fill="white"/>
</svg>
