<svg width="33" height="43" viewBox="0 0 33 43" fill="none" xmlns="http://www.w3.org/2000/svg">
<circle cx="16.5" cy="26.5" r="16.5" fill="#0E558E"/>
<path d="M12.044 24.118C12.116 23.002 12.542 22.132 13.322 21.508C14.114 20.884 15.122 20.572 16.346 20.572C17.186 20.572 17.912 20.722 18.524 21.022C19.136 21.322 19.598 21.73 19.91 22.246C20.222 22.762 20.378 23.344 20.378 23.992C20.378 24.736 20.18 25.372 19.784 25.9C19.388 26.428 18.914 26.782 18.362 26.962V27.034C19.07 27.25 19.622 27.646 20.018 28.222C20.414 28.786 20.612 29.512 20.612 30.4C20.612 31.108 20.45 31.738 20.126 32.29C19.802 32.842 19.322 33.28 18.686 33.604C18.05 33.916 17.288 34.072 16.4 34.072C15.104 34.072 14.036 33.742 13.196 33.082C12.368 32.41 11.924 31.45 11.864 30.202H13.844C13.892 30.838 14.138 31.36 14.582 31.768C15.026 32.164 15.626 32.362 16.382 32.362C17.114 32.362 17.678 32.164 18.074 31.768C18.47 31.36 18.668 30.838 18.668 30.202C18.668 29.362 18.398 28.768 17.858 28.42C17.33 28.06 16.514 27.88 15.41 27.88H14.942V26.188H15.428C16.4 26.176 17.138 26.014 17.642 25.702C18.158 25.39 18.416 24.898 18.416 24.226C18.416 23.65 18.23 23.194 17.858 22.858C17.486 22.51 16.958 22.336 16.274 22.336C15.602 22.336 15.08 22.51 14.708 22.858C14.336 23.194 14.114 23.614 14.042 24.118H12.044Z" fill="white"/>
</svg>
